<?xml version="1.0" encoding="UTF-8"?> <svg xmlns="http://www.w3.org/2000/svg" width="233" height="161" fill="none"><g clip-path="url(#a)"><path d="M230.799 60.94h-.063l-36.105 15.424-49.398 21.104c-.39.163-.831.167-1.221.006L93.048 76.32 56.056 60.965 56 60.939h-.063a2.204 2.204 0 0 0-2.202 2.203v95.655c0 1.215.988 2.203 2.202 2.203h174.862a2.205 2.205 0 0 0 2.201-2.203V63.142a2.205 2.205 0 0 0-2.201-2.203z" fill="#fff"></path><path d="M231.427 61.569a.31.31 0 0 1-.179-.057L144.27.91a1.586 1.586 0 0 0-1.802 0L56.116 61.512a.31.31 0 0 1-.437-.078.313.313 0 0 1 .075-.438l86.352-60.6a2.205 2.205 0 0 1 2.523-.003l86.978 60.603c.141.1.176.296.078.438a.314.314 0 0 1-.258.135z" fill="#3F3D56"></path><path d="m61.05 63.718 82.403-61.1 83.028 65.448-78.782 46.727-42.772-9.755-43.876-41.32z" fill="#E6E6E6"></path><path d="M108.537 143.653H67.828c-1.05 0-1.903-.85-1.906-1.9 0-1.051.85-1.904 1.9-1.907h40.715c1.05 0 1.903.849 1.906 1.9a1.906 1.906 0 0 1-1.9 1.907h-.006zM82.434 135.472H67.828c-1.05 0-1.903-.85-1.906-1.901 0-1.051.85-1.903 1.9-1.906h14.612c1.05 0 1.902.849 1.906 1.9 0 1.051-.85 1.904-1.9 1.907h-.006z" fill="#2EC4B6"></path><path d="M144.613 97.751c-.308 0-.616-.06-.902-.176l-50.82-21.098v-66.04c0-1.214.987-2.202 2.201-2.202h97.495c1.214 0 2.201.988 2.201 2.202v66.087l-.094.041-49.15 21c-.296.123-.61.19-.931.186z" fill="#fff"></path><path d="M144.613 97.908c-.33 0-.657-.063-.962-.189L92.733 76.581V10.437a2.36 2.36 0 0 1 2.36-2.36h97.494a2.36 2.36 0 0 1 2.359 2.36v66.191L145.604 97.71a2.5 2.5 0 0 1-.991.198zm-51.25-21.746 50.527 20.975c.472.192 1 .19 1.469-.01l48.958-20.917V10.437a1.73 1.73 0 0 0-1.73-1.73H95.092a1.73 1.73 0 0 0-1.73 1.73v65.725z" fill="#3F3D56"></path><path d="M230.799 60.94h-.063l-36.105 15.424-49.398 21.104c-.39.163-.831.167-1.221.006L93.048 76.32 56.056 60.965 56 60.939h-.063a2.204 2.204 0 0 0-2.202 2.203v95.655c0 1.215.988 2.203 2.202 2.203h174.862a2.205 2.205 0 0 0 2.201-2.203V63.142a2.205 2.205 0 0 0-2.201-2.203zm1.572 97.857c0 .869-.704 1.574-1.572 1.574H55.937a1.574 1.574 0 0 1-1.573-1.574V63.142c0-.846.67-1.539 1.513-1.573l37.17 15.43 50.723 21.057c.551.224 1.164.22 1.711-.01l49.15-21 36.23-15.477a1.58 1.58 0 0 1 1.51 1.573v95.655z" fill="#3F3D56"></path><path d="M136.7 32.922h-34.595a2.516 2.516 0 0 1-2.516-2.517 2.516 2.516 0 0 1 2.516-2.517H136.7a2.516 2.516 0 0 1 2.516 2.517 2.516 2.516 0 0 1-2.516 2.517zM118.774 22.224h-16.669a2.516 2.516 0 0 1-2.516-2.517 2.516 2.516 0 0 1 2.516-2.517h16.669a2.516 2.516 0 0 1 2.516 2.517 2.516 2.516 0 0 1-2.516 2.517z" fill="#2EC4B6"></path><path d="M169.713 58.095h-52.836a2.516 2.516 0 0 1-2.516-2.517 2.516 2.516 0 0 1 2.516-2.518h52.836a2.516 2.516 0 0 1 2.516 2.518 2.516 2.516 0 0 1-2.516 2.517zM169.713 69.737h-52.836a2.516 2.516 0 0 1-2.516-2.517 2.516 2.516 0 0 1 2.516-2.517h52.836a2.516 2.516 0 0 1 2.516 2.517 2.516 2.516 0 0 1-2.516 2.517z" fill="#CCC"></path><path d="M12.879 72.68a1.417 1.417 0 0 1-1.387-1.14l-1.145-5.708c-1.264-6.305 2.821-12.441 9.12-13.703 6.3-1.262 12.436 2.823 13.697 9.125l1.145 5.708a1.416 1.416 0 0 1-1.11 1.668L13.156 72.65a1.383 1.383 0 0 1-.28.028h.003z" fill="#2F2E41"></path><path d="M48.461 157.661h-3.594l-1.711-13.876h5.305v13.876z" fill="#A0616A"></path><path d="M42.297 156.633h6.935V161h-11.3a4.367 4.367 0 0 1 4.365-4.367z" fill="#2F2E41"></path><path d="m10.998 157.624-3.311-1.4 3.833-13.446 4.888 2.071-5.41 12.775z" fill="#A0616A"></path><path d="m5.724 154.273 6.384 2.706L10.407 161 0 156.592a4.366 4.366 0 0 1 5.724-2.319z" fill="#2F2E41"></path><path d="M22.084 71.248a7.726 7.726 0 0 0 7.724-7.728 7.726 7.726 0 0 0-7.724-7.728 7.726 7.726 0 0 0-7.724 7.728 7.726 7.726 0 0 0 7.724 7.728z" fill="#A0616A"></path><path d="m22.452 98.676-.078-.258c-2.104-6.844-4.28-13.92-6.46-20.65l-.06-.183.135-.136c3.381-3.442 9.718-4.814 14.738-3.193 5.05 1.633 8.532 6.208 8.098 10.644a11.362 11.362 0 0 0 2.022 7.517l.201.293-.314.164a57.206 57.206 0 0 1-18.015 5.758l-.267.038v.006z" fill="#3F3D56"></path><path d="M13.134 155.132c-.277 0-.548-.073-.784-.211l-4.173-2.41a1.567 1.567 0 0 1-.638-2.03l9.271-22.01 7.086-32.101 12.913-4.698.117.053c13.844 6.363 12.774 51.969 12.42 61.05a1.577 1.577 0 0 1-1.435 1.504l-3.884.507a1.589 1.589 0 0 1-1.702-1.303l-7.928-35.446a.317.317 0 0 0-.258-.274.307.307 0 0 0-.327.154l-19.307 36.409c-.205.368-.55.639-.96.749a1.544 1.544 0 0 1-.415.057h.004z" fill="#2F2E41"></path><path d="M17.772 122.782a2.953 2.953 0 0 0-1.217-4.358l.211-6.74-4.063-1.126-.164 9.521a2.965 2.965 0 0 0 5.233 2.703z" fill="#A0616A"></path><path d="M12.599 115.661h-.24a1.565 1.565 0 0 1-1.546-1.45c-.39-5.019-1.586-22.117-.623-31.384a6.534 6.534 0 0 1 7.413-5.51c.063.01.128.02.191.032l.249.053v.255c-.091 12.196-.085 24.32-.079 36.044 0 .736-.51 1.378-1.23 1.539a20.338 20.338 0 0 1-4.138.421h.003z" fill="#2EC4B6"></path><path d="M21.848 130.286a4.27 4.27 0 0 1-4.22-3.753l.343-28.146-5.592-14.15a8.306 8.306 0 0 1 5.34-8.83l1.494-.56a2.292 2.292 0 0 1 2.95 1.34v.01l5.768 15.576v.022c.402 6.198 2.204 37.05-1.393 37.969a19.74 19.74 0 0 1-4.652.522h-.04.002z" fill="#2EC4B6"></path><path d="M55.063 112.156a2.95 2.95 0 0 1-1.388-4.305l-3.89-5.503 2.768-3.181 5.387 7.851a2.969 2.969 0 0 1 .657 4.144 2.96 2.96 0 0 1-3.531.997l-.004-.003z" fill="#A0616A"></path><path d="M51.178 105.082a1.27 1.27 0 0 1-1.022-.569l-.022-.032c-6.44-9.75-13.099-19.835-19.848-29.886l-.072-.107.094-.09a6.01 6.01 0 0 1 4.428-1.609 5.928 5.928 0 0 1 4.375 2.052c5.897 7.18 14.313 22.08 16.753 26.475.321.566.151 1.284-.386 1.646a20.006 20.006 0 0 1-3.828 2.035c-.15.06-.311.089-.475.082l.003.003z" fill="#2EC4B6"></path><path d="M49.015 124.012c-3.856 0-17.656-26.582-20.386-31.912l-.025-.066-3.016-16.309a2.292 2.292 0 0 1 1.836-2.671h.01l1.572-.287a8.304 8.304 0 0 1 9.108 4.85l3.941 16.578 13.18 22.407a4.277 4.277 0 0 1-1.723 5.441c-1.34.811-2.77 1.46-4.264 1.935a.874.874 0 0 1-.236.034h.003z" fill="#2EC4B6"></path><path d="M28.085 63.586H12.517v-1.888a7.875 7.875 0 0 1 7.863-7.867h1.258a7.875 7.875 0 0 1 7.862 7.867v.472c0 .78-.635 1.416-1.415 1.416z" fill="#2F2E41"></path></g><defs><clipPath id="a"><path fill="#fff" d="M0 0h233v161H0z"></path></clipPath></defs></svg> 